<?xml version="1.0" encoding="UTF-8"?><svg id="Layer_1" xmlns="http://www.w3.org/2000/svg" viewBox="0 0 512 512"><defs><style>.cls-1{fill:#414042;}.cls-2{fill:#fafbfc;}</style></defs><path class="cls-2" d="M512,512H112.76c-62.27,0-112.76-50.48-112.76-112.76V112.76C0,50.48,50.48,0,112.76,0h286.49c62.27,0,112.76,50.48,112.76,112.76v399.24"/><path class="cls-1" d="M313.99,427.16h76.42l-70.98-131.66c.92-.4,1.83-.8,2.73-1.22,18.44-8.62,32.58-21.01,42.4-37.19,9.82-16.17,14.74-35.37,14.74-57.6s-4.8-41.8-14.4-58.28c-9.6-16.48-23.47-29.25-41.61-38.32-18.14-9.07-39.99-13.61-65.53-13.61H125.09v337.87h69.39v-119.96h56.07l63.43,119.96ZM194.48,146.66h52.38c13.75,0,25.17,2.08,34.24,6.23,9.07,4.16,15.91,10.13,20.52,17.91,4.61,7.79,6.92,17.35,6.92,28.68s-2.31,20.41-6.92,28.12c-4.61,7.71-11.45,13.57-20.52,17.58-9.07,4.01-20.41,6.01-34.01,6.01h-52.61v-104.54Z"/></svg>